<?xml version="1.0" standalone="no"?><!DOCTYPE svg PUBLIC "-//W3C//DTD SVG 1.1//EN" "http://www.w3.org/Graphics/SVG/1.1/DTD/svg11.dtd"><svg t="1544672463202" class="icon" style="" viewBox="0 0 1024 1024" version="1.1" xmlns="http://www.w3.org/2000/svg" p-id="8591" xmlns:xlink="http://www.w3.org/1999/xlink" width="200" height="200"><defs><style type="text/css"></style></defs><path d="M507.758907 242.352677c1.435699-0.013303 2.846838-0.013303 4.256954-0.013303 191.503569 0 354.723977 106.667392 372.534622 244.125043l53.06559-6.868431c-21.231557-163.690106-207.720925-290.741757-425.6524-290.741757-1.542122 0-3.108804 0-4.623297 0.013303C283.533077 190.70846 100.778776 315.880297 82.236468 480.026798l53.17099 6.006807C150.633231 350.978676 314.193377 243.944941 507.758907 242.352677zM884.498294 533.524223c-15.199167 135.041626-178.759313 242.076384-372.299261 243.669672-1.435699 0.013303-2.844791 0.013303-4.25593 0.013303-191.555757 0-354.801748-106.668415-372.58681-244.12709l-53.066613 6.869455c21.205974 163.690106 207.720925 290.740734 425.704588 290.740734 1.541099 0 3.107781 0 4.622274-0.013303 223.834928-1.840928 406.53704-127.025045 425.052742-291.171546L884.498294 533.524223zM296.042995 511.562025c0.966001 116.983341 96.913237 212.160028 213.884298 212.160028l1.827625-0.013303c57.113789-0.481977 110.651123-23.176862 150.73812-63.902402 40.060391-40.74089 61.867046-94.655823 61.396325-151.796218-0.939395-116.996644-96.913237-212.17333-215.685317-212.17333C390.240377 296.815079 295.050388 393.59938 296.042995 511.562025zM670.405241 508.454244c0.36532 42.85504-16.008602 83.281775-46.040592 113.836675-30.058596 30.553876-70.224388 47.581692-113.079428 47.935756l-1.357927 26.753317 0-26.740014c-87.720877 0-159.668513-71.387887-160.400177-159.122067-0.730641-88.478124 70.641897-161.065326 160.452365-161.79699C597.725942 349.319897 669.69916 420.706761 670.405241 508.454244zM509.508761 456.288141l-0.417509-53.484122c-58.994626 0.483001-106.602923 48.874127-106.10662 107.868753l53.484122-0.444115C456.234417 480.732879 480.02424 456.536804 509.508761 456.288141z" p-id="8592"></path></svg>