<?xml version="1.0" standalone="no"?><!DOCTYPE svg PUBLIC "-//W3C//DTD SVG 1.1//EN" "http://www.w3.org/Graphics/SVG/1.1/DTD/svg11.dtd"><svg t="1550548106128" class="icon" style="" viewBox="0 0 1024 1024" version="1.1" xmlns="http://www.w3.org/2000/svg" p-id="2275" xmlns:xlink="http://www.w3.org/1999/xlink" width="200" height="200"><defs><style type="text/css"></style></defs><path d="M768 576v292.5H640V672c0-32 0-96-128-96s-128 64-128 98.3V864H256V576c0-60.2-64-59.8-64 0v291.2c0 61 0 61 52.3 60.6 57.1-0.4 139.7 0 139.7 0 39.3 1.8 63.9-24 64-63.9V674.3c-0.8-45.2 127-45.6 128-2.3 1.9 3.7 0 196.5 0 196.5 0.1 38 32.2 61.6 64 59.7 0 0 83.4-0.3 140.5-0.3C819 927.9 832 913 832 869V576c0-58.2-64-57.5-64 0z" p-id="2276"></path><path d="M949.7 488.5L534 104.5c-12.3-11.3-31.2-11.3-43.5 0l-414.3 384c-13 12-13.7 32.3-1.7 45.2 12 13 32.3 13.7 45.2 1.7l392.6-363.9 394 363.9c6.2 5.7 13.9 8.5 21.7 8.5 8.6 0 17.2-3.5 23.5-10.3 12-12.9 11.2-33.1-1.8-45.1z" p-id="2277"></path></svg>